<svg width="48" height="48" viewBox="0 0 48 48" fill="none" xmlns="http://www.w3.org/2000/svg">
<path d="M31.5002 24C31.5002 25.9891 30.71 27.8968 29.3035 29.3033C27.8969 30.7098 25.9893 31.5 24.0002 31.5C22.011 31.5 20.1034 30.7098 18.6969 29.3033C17.2903 27.8968 16.5002 25.9891 16.5002 24C16.5002 23.5725 16.5452 23.155 16.6227 22.75H14.0002V32.7425C14.0002 33.4375 14.5627 34 15.2577 34H32.7452C33.0782 33.9993 33.3974 33.8666 33.6327 33.6308C33.868 33.395 34.0002 33.0756 34.0002 32.7425V22.75H31.3777C31.4552 23.155 31.5002 23.5725 31.5002 24ZM24.0002 29C24.6569 28.9998 25.3072 28.8703 25.914 28.6188C26.5207 28.3673 27.0719 27.9988 27.5362 27.5343C28.0005 27.0698 28.3688 26.5183 28.6199 25.9115C28.8711 25.3046 29.0003 24.6543 29.0002 23.9975C29 23.3407 28.8705 22.6904 28.619 22.0837C28.3675 21.477 27.999 20.9257 27.5344 20.4614C27.0699 19.9972 26.5185 19.6289 25.9116 19.3777C25.3048 19.1265 24.6544 18.9973 23.9977 18.9975C22.6712 18.9978 21.3993 19.5251 20.4616 20.4632C19.5239 21.4014 18.9973 22.6736 18.9977 24C18.998 25.3264 19.5252 26.5984 20.4634 27.5361C21.4015 28.4737 22.6737 29.0003 24.0002 29ZM30.0002 18.75H32.9977C33.1968 18.75 33.3878 18.6711 33.5289 18.5305C33.6699 18.3899 33.7495 18.1991 33.7502 18V15.0025C33.7502 14.8029 33.6709 14.6115 33.5298 14.4704C33.3886 14.3293 33.1972 14.25 32.9977 14.25H30.0002C29.8006 14.25 29.6092 14.3293 29.4681 14.4704C29.3269 14.6115 29.2477 14.8029 29.2477 15.0025V18C29.2502 18.4125 29.5877 18.75 30.0002 18.75ZM24.0002 0C17.635 0 11.5305 2.52856 7.02959 7.02944C2.52872 11.5303 0.000152588 17.6348 0.000152588 24C0.000152588 30.3652 2.52872 36.4697 7.02959 40.9706C11.5305 45.4714 17.635 48 24.0002 48C27.1519 48 30.2727 47.3792 33.1846 46.1731C36.0964 44.967 38.7421 43.1992 40.9707 40.9706C43.1993 38.742 44.9672 36.0962 46.1733 33.1844C47.3794 30.2726 48.0002 27.1517 48.0002 24C48.0002 20.8483 47.3794 17.7274 46.1733 14.8156C44.9672 11.9038 43.1993 9.25804 40.9707 7.02944C38.7421 4.80083 36.0964 3.033 33.1846 1.82689C30.2727 0.620778 27.1519 0 24.0002 0ZM36.5002 33.7225C36.5002 35.25 35.2502 36.5 33.7227 36.5H14.2777C12.7502 36.5 11.5002 35.25 11.5002 33.7225V14.2775C11.5002 12.75 12.7502 11.5 14.2777 11.5H33.7227C35.2502 11.5 36.5002 12.75 36.5002 14.2775V33.7225Z" fill="white"/>
</svg>
